PathFileType	4	(X/Y/Z)	c:/Users/goper/Files/vsCode/490R/osim_files/A04/A04_Fast_04.trc
DataRate	CameraRate	NumFrames	NumMarkers	Units                	OrigDataRate	OrigDataStartFrame	OrigNumFrames
120.00	120.00	10	36	mm	120.0	800	1066
                Frame#	Time	LPSIS			LASIS			LTH1			LTH2			LTH3			LTH4			LLFE			LMFE			LSH1			LSH2			LSH3			LSH4			LLMAL			LMMAL			LCAL			LMTP5			LTOE			LMTP1			RPSIS			RASIS			RTH1			RTH2			RTH3			RTH4			RLFE			RMFE			RSH1			RSH2			RSH3			RSH4			RLMAL			RMMAL			RCAL			RMTP1			RTOE			RMTP5		
		X1	Y1	Z1	X2	Y2	Z2	X3	Y3	Z3	X4	Y4	Z4	X5	Y5	Z5	X6	Y6	Z6	X7	Y7	Z7	X8	Y8	Z8	X9	Y9	Z9	X10	Y10	Z10	X11	Y11	Z11	X12	Y12	Z12	X13	Y13	Z13	X14	Y14	Z14	X15	Y15	Z15	X16	Y16	Z16	X17	Y17	Z17	X18	Y18	Z18	X19	Y19	Z19	X20	Y20	Z20	X21	Y21	Z21	X22	Y22	Z22	X23	Y23	Z23	X24	Y24	Z24	X25	Y25	Z25	X26	Y26	Z26	X27	Y27	Z27	X28	Y28	Z28	X29	Y29	Z29	X30	Y30	Z30	X31	Y31	Z31	X32	Y32	Z32	X33	Y33	Z33	X34	Y34	Z34	X35	Y35	Z35	X36	Y36	Z36

800	6.65833	-1273.76514	1062.11499	376.91556	-1498.53906	1001.35706	446.29477	-1364.94666	695.29706	461.97531	-1362.41895	650.81219	457.51416	-1425.88013	687.68726	455.10742	-1415.72363	644.21173	450.93228	-1359.91418	524.27533	439.98178	-1372.96008	533.30542	300.69623	-1313.70288	426.89926	434.97998	-1315.50720	383.41208	429.90381	-1374.90149	422.47995	422.66266	-1366.71301	380.10675	417.23080	-1251.97253	109.54935	365.75131	-1272.17212	114.70650	281.23154	-1188.75720	70.35154	311.15790	-1394.33228	60.80848	395.58487	-1441.42786	75.98331	333.98218	-1423.34656	61.13020	290.19461	-1265.34058	1049.26050	270.07080	-1483.00098	1019.55853	163.24188	-1520.20032	736.58826	125.25887	-1545.98950	702.93390	125.65242	-1572.43091	769.96558	119.02315	-1593.37305	727.34180	122.82447	-1656.76367	602.15271	144.58577	-1662.73779	596.61987	263.16122	-1615.16589	367.77267	147.15866	-1622.21594	320.72531	154.34850	-1676.17383	369.68271	142.72580	-1673.35681	322.12946	146.60558	-1655.43445	128.54124	145.26939	-1678.76672	138.32385	278.68741	-1593.91345	69.04284	222.01027	-1817.05518	96.33848	255.93359	-1836.17346	122.25851	211.80338	-1806.84119	90.88431	138.24234
801	6.66667	-1283.27100	1060.98169	376.48932	-1507.78479	1000.31635	445.62561	-1370.83862	695.05756	461.85739	-1367.67139	650.71893	457.31384	-1431.44653	686.98846	455.04095	-1420.70398	643.64697	450.79370	-1363.80396	523.97565	439.72672	-1376.89026	532.87994	300.44876	-1317.25513	426.82401	434.96426	-1318.27930	383.46539	429.71320	-1377.99963	422.05347	422.48770	-1369.40527	379.75250	417.08801	-1252.34131	109.90977	365.79587	-1272.58081	114.95160	281.16943	-1188.96716	71.03101	310.99442	-1394.50806	60.70922	395.55997	-1441.68396	75.72498	334.00870	-1423.50500	60.88617	290.19473	-1275.00610	1048.10388	269.74454	-1492.79016	1018.04016	162.36176	-1527.76379	734.25897	126.12527	-1553.20996	700.40826	126.49409	-1580.12451	767.23230	118.85799	-1600.71326	724.44342	122.82458	-1664.90942	600.15344	144.79187	-1671.58459	594.99957	263.08414	-1633.90808	364.27228	147.27606	-1643.40405	317.65802	154.69534	-1695.05713	369.12741	143.34367	-1694.51404	321.49188	147.29938	-1685.99829	127.22330	146.07506	-1707.64551	138.28065	279.76022	-1627.19910	64.60962	222.47874	-1848.06555	103.09354	258.44003	-1866.19751	129.72729	214.43222	-1839.18713	96.83744	140.79146
802	6.67500	-1292.95142	1059.79077	376.02277	-1517.19946	999.17230	445.06708	-1376.58606	694.92786	461.70044	-1372.89233	650.59979	457.15436	-1437.10071	686.12299	455.03293	-1425.89172	642.97485	450.69333	-1367.84827	523.64630	439.54669	-1381.09717	532.38281	300.21387	-1320.42419	426.94556	434.80161	-1321.16467	383.50812	429.53546	-1381.11633	421.61429	422.45688	-1372.16321	379.33868	416.95166	-1252.77234	110.31985	365.83560	-1273.04590	115.23790	281.07294	-1189.32178	71.41740	311.03680	-1394.67468	60.60609	395.55286	-1441.94751	75.42339	334.01468	-1423.72168	60.70380	290.18591	-1284.89050	1046.80627	269.34149	-1502.95996	1016.57312	161.42439	-1535.00977	731.80499	126.71340	-1560.26526	697.69690	127.17789	-1587.62256	764.00366	118.48445	-1608.08655	721.22937	122.84066	-1672.73145	597.79877	145.24315	-1680.17542	593.04028	263.45236	-1652.53174	360.91504	147.78053	-1663.42529	315.20541	154.71021	-1713.09253	368.58557	144.19893	-1714.91711	321.03473	148.15723	-1715.78308	126.25726	147.21742	-1735.82214	138.80061	280.90186	-1658.99487	61.68231	222.77298	-1877.97510	110.36470	260.82401	-1895.50891	138.21288	217.08603	-1870.44507	103.60323	143.06245
803	6.68333	-1302.66077	1058.47412	375.51514	-1526.65710	998.03748	444.57715	-1382.43567	694.73138	461.54993	-1378.39685	650.41650	456.95480	-1442.91248	685.36328	455.03101	-1431.23279	642.20288	450.60284	-1372.01636	523.30298	439.32233	-1385.37122	531.83405	299.94446	-1323.28467	427.19778	434.42236	-1324.06665	383.59149	429.37595	-1384.38867	421.05463	422.30017	-1375.15173	378.96472	416.86847	-1253.18018	110.79709	365.81366	-1273.59131	115.53559	280.96198	-1189.57581	72.07141	310.97931	-1394.82495	60.51966	395.54343	-1442.19812	75.14129	333.99854	-1423.90454	60.49061	290.19904	-1294.95837	1045.32605	268.89005	-1513.25024	1014.94806	160.61778	-1542.67383	729.12311	127.00437	-1567.57434	694.75391	127.54868	-1595.39050	760.96106	118.47347	-1615.46753	717.88495	122.74203	-1680.28113	595.05713	145.94522	-1688.43079	590.75385	263.91226	-1670.26514	357.83063	148.42068	-1683.96460	311.98917	156.18710	-1730.61255	368.35107	145.09549	-1734.42590	320.76886	149.14023	-1744.35596	126.32645	148.25125	-1763.07312	139.73177	282.06448	-1690.29468	58.98919	223.49414	-1906.60425	118.03111	262.81485	-1923.24683	146.86401	218.32550	-1900.20471	110.90722	144.97185
804	6.69167	-1312.52954	1056.99878	374.84537	-1536.24902	996.83313	443.97284	-1388.50757	694.41077	461.34155	-1384.01831	650.20001	456.75745	-1448.90503	684.40009	454.96033	-1436.96436	641.50354	450.40778	-1376.39697	522.93195	439.07730	-1389.90552	531.23999	299.66217	-1327.25720	427.11432	434.39822	-1327.04272	383.69513	429.18607	-1387.75378	420.51456	422.02664	-1378.15967	378.53577	416.61551	-1253.65698	111.26951	365.74048	-1273.73792	116.12989	280.71130	-1189.79187	72.80552	310.97159	-1394.96680	60.44287	395.53723	-1442.39404	74.85075	333.98932	-1424.20972	60.16699	290.22238	-1305.00378	1043.74561	268.35583	-1523.82532	1013.34125	159.82185	-1550.22046	726.42645	127.22085	-1574.99841	691.82947	127.80029	-1603.44824	757.60303	118.30944	-1623.02698	714.33624	122.71403	-1687.80164	592.06226	146.90286	-1696.71533	588.25537	264.62357	-1687.50977	354.60886	149.65427	-1702.99329	309.81851	157.28912	-1747.02869	368.13846	146.10551	-1752.90100	320.86224	150.14005	-1771.47766	126.94080	149.33041	-1788.89966	141.67719	283.69611	-1720.30273	57.14045	224.51762	-1933.40784	125.66777	264.39679	-1948.74780	155.22308	219.98166	-1927.90405	118.34541	146.45288
805	6.70000	-1322.55225	1055.44373	374.10962	-1546.02271	995.46722	443.47455	-1394.92700	693.99219	461.14240	-1390.10278	649.80591	456.49799	-1455.30090	683.48297	454.72153	-1442.79797	640.66919	450.21124	-1381.05054	522.53625	438.73602	-1394.82874	530.59717	299.29227	-1330.56909	427.03897	433.90161	-1330.43591	383.74689	428.90924	-1391.53577	420.04169	421.75052	-1381.47571	378.08224	416.36353	-1254.07666	111.83347	365.60434	-1274.41956	116.28532	280.70102	-1190.62451	73.74989	310.48975	-1395.12000	60.41225	395.50565	-1442.66089	74.59564	333.96146	-1424.35876	59.97108	290.19196	-1315.36511	1042.06372	267.65634	-1534.33679	1011.68903	159.03828	-1558.36462	723.52112	127.39050	-1582.53040	688.76123	127.96363	-1611.76355	754.22131	118.17554	-1630.87109	710.77222	122.60138	-1695.17578	588.82855	148.12790	-1704.66418	585.41772	265.50412	-1703.63977	352.12991	150.98625	-1720.92859	308.11215	158.44458	-1762.54968	368.05792	147.20500	-1770.28601	321.07776	151.26422	-1796.74316	128.15413	150.30040	-1813.85986	143.49138	284.63547	-1748.68604	56.17227	225.63260	-1958.72314	133.48701	265.13904	-1972.78516	163.54587	220.86952	-1953.62390	125.94373	147.25253
806	6.70833	-1332.70227	1053.79395	373.17987	-1556.01196	994.01367	442.98154	-1401.78235	693.47968	460.92456	-1396.46497	649.37885	456.20636	-1461.86755	682.47137	454.30249	-1449.13843	639.68652	449.81717	-1386.06494	522.14441	438.34216	-1399.98694	529.91315	298.91293	-1334.61255	427.45416	433.56976	-1333.97327	383.77301	428.63354	-1395.44275	419.51343	421.41580	-1385.00354	377.67053	416.06158	-1254.57324	112.48420	365.46176	-1274.97400	116.65342	280.42953	-1190.87402	74.50335	310.36746	-1395.28735	60.38945	395.45981	-1442.94592	74.37165	333.92471	-1424.50854	59.83347	290.10959	-1325.89111	1040.29309	266.81723	-1545.37219	1010.17810	158.37305	-1566.70129	720.56299	127.61607	-1590.56311	685.50983	128.09763	-1620.36426	750.73608	117.97817	-1639.03149	707.06348	122.36087	-1702.64673	585.57703	149.63748	-1712.34753	582.32843	266.75946	-1718.93774	349.95981	152.47961	-1737.95093	306.54172	159.84831	-1777.21167	368.00909	148.47766	-1786.78137	321.40048	152.44337	-1820.27161	129.54616	151.26659	-1837.50024	145.53009	285.51526	-1775.38086	55.81903	226.82724	-1982.52283	141.09459	265.34650	-1995.16345	171.65825	221.03276	-1977.30347	133.05133	147.69347
807	6.71667	-1343.01941	1051.99951	372.12717	-1566.07068	992.43604	442.50433	-1408.64038	693.00629	460.60736	-1403.24072	648.83441	455.81064	-1468.86597	681.41949	453.77603	-1455.85181	638.84473	449.26126	-1391.43994	521.68170	437.77374	-1405.90198	529.23218	299.04184	-1339.36853	427.18256	433.43256	-1337.85181	383.91696	428.28638	-1399.62891	418.92642	421.01993	-1388.72217	377.22162	415.64941	-1255.15381	113.26321	365.35617	-1275.66321	117.18400	280.22791	-1191.16260	75.48289	310.37268	-1395.55615	60.33686	395.42725	-1443.28259	74.16048	333.91486	-1424.81775	59.58755	290.11252	-1336.53369	1038.43103	265.80600	-1556.38538	1008.58209	157.71045	-1575.51807	717.67291	127.73840	-1599.05688	682.35474	128.24332	-1629.36121	747.19934	117.68802	-1647.82080	703.39954	122.10164	-1710.54871	582.48883	151.45110	-1719.22217	578.45575	268.41013	-1733.16541	347.82968	154.16580	-1753.69751	305.16068	161.40134	-1790.78357	367.86032	149.72920	-1801.99182	321.57462	153.59158	-1841.94116	131.00372	152.22250	-1859.48145	147.57713	286.23334	-1799.96094	55.91176	228.06052	-2004.67090	148.03838	265.02908	-2015.90527	179.09811	220.65802	-1998.77478	139.86401	147.46382
808	6.72500	-1353.44080	1050.09741	371.01523	-1576.34009	990.68414	442.09674	-1416.37158	692.17987	460.26028	-1410.36365	648.19098	455.42697	-1476.28479	680.29694	453.18744	-1462.88489	637.83453	448.70026	-1397.06250	521.23303	437.29095	-1410.83826	528.26617	297.81387	-1343.54150	427.40628	432.79794	-1342.25256	384.21384	427.72345	-1404.07996	418.37827	420.63748	-1392.74341	376.75946	415.26746	-1255.71814	114.34960	365.36487	-1276.47302	117.82027	280.04446	-1191.46167	76.76015	310.40802	-1395.84204	60.26982	395.42380	-1443.70325	73.88954	333.93042	-1425.09875	59.32502	290.12311	-1347.37842	1036.46863	264.66101	-1567.74036	1007.08319	157.25583	-1584.80151	714.87347	127.90585	-1607.97607	679.24542	128.38306	-1638.97437	743.76801	117.32870	-1656.88123	699.74817	121.74552	-1719.00977	579.48547	153.44380	-1726.46802	575.00336	270.73590	-1746.73425	345.72437	155.89021	-1768.52905	303.75412	162.93819	-1803.67542	367.53598	151.08728	-1816.29382	321.64795	154.81822	-1861.72095	132.26749	153.06001	-1879.93933	149.28683	286.64713	-1823.53174	55.69957	229.50911	-2024.91516	154.31877	264.49969	-2034.81689	185.77124	219.97214	-2018.26599	145.95276	146.95673
809	6.73333	-1364.11865	1047.98657	369.75659	-1586.73132	988.92358	441.80411	-1424.23657	691.48053	459.91141	-1417.98669	647.46857	454.96362	-1484.05688	679.08398	452.50616	-1470.25354	636.64105	447.94513	-1403.30615	520.68152	436.72665	-1417.98022	527.61481	297.96924	-1348.45312	427.60413	432.28128	-1346.25562	384.41360	427.29349	-1409.87292	416.65622	421.97571	-1397.00586	376.28958	414.90927	-1256.67346	115.28240	365.43445	-1277.40735	118.70991	279.98590	-1192.03882	78.18524	310.43549	-1396.16406	60.16277	395.44232	-1444.28638	73.48051	333.97665	-1425.56555	58.92028	290.19989	-1358.41272	1034.50806	263.35217	-1579.28784	1005.47052	156.82310	-1594.54626	712.22205	128.20087	-1617.26941	676.33374	128.68034	-1648.98096	740.37964	116.98992	-1666.42493	696.21295	121.58440	-1727.87305	576.45538	155.46953	-1733.33398	571.29102	272.95789	-1759.53723	343.65848	157.65039	-1782.31396	302.24887	164.49449	-1815.84290	366.86853	152.28746	-1829.52783	321.27475	156.05229	-1879.81335	133.11722	153.99380	-1898.94653	151.09138	288.31961	-1844.31006	55.61169	230.79510	-2043.43701	159.50131	263.97299	-2051.97949	191.26808	219.36334	-2035.82825	150.93568	146.46373
